<svg width="818" height="486" viewBox="0 0 818 486" fill="none" xmlns="http://www.w3.org/2000/svg">
<mask id="mask0_206_49" style="mask-type:alpha" maskUnits="userSpaceOnUse" x="0" y="0" width="818" height="486">
<rect width="818" height="485.966" fill="#04267D"/>
</mask>
<g mask="url(#mask0_206_49)">
<rect y="0.000244141" width="818" height="485.966" fill="#04267D"/>
<rect x="-24.6914" y="443.71" width="433.747" height="96.4317" transform="rotate(-29.7397 -24.6914 443.71)" fill="white"/>
<rect x="474.476" y="217.54" width="433.747" height="96.4632" transform="rotate(31.6426 474.476 217.54)" fill="white"/>
<rect x="25.2012" y="-41.2527" width="433.747" height="96.5366" transform="rotate(31.6426 25.2012 -41.2527)" fill="white"/>
<rect x="-0.0410156" y="0.000244141" width="433.747" height="24.1711" transform="rotate(31.6426 -0.0410156 0.000244141)" fill="#CC162C"/>
<rect x="-0.621094" y="485.537" width="433.747" height="24.1711" transform="rotate(-29.7397 -0.621094 485.537)" fill="#CC162C"/>
<rect x="461.754" y="237.895" width="433.747" height="24.1711" transform="rotate(31.6426 461.754 237.895)" fill="#CC162C"/>
<rect x="417.62" y="173.183" width="433.747" height="96.2063" transform="rotate(-29.7397 417.62 173.183)" fill="white"/>
<rect x="429.395" y="194.1" width="433.747" height="24.1711" transform="rotate(-29.7397 429.395 194.1)" fill="#CC162C"/>
<mask id="path-11-outside-1_206_49" maskUnits="userSpaceOnUse" x="-20" y="-19.9998" width="858" height="526" fill="black">
<rect fill="white" x="-20" y="-19.9998" width="858" height="526"/>
<path fill-rule="evenodd" clip-rule="evenodd" d="M442.076 209.907V0.000247032L375.924 0.000244141V209.907H0V276.059H375.924V485.966H442.076V276.059H818V209.907H442.076Z"/>
</mask>
<path fill-rule="evenodd" clip-rule="evenodd" d="M442.076 209.907V0.000247032L375.924 0.000244141V209.907H0V276.059H375.924V485.966H442.076V276.059H818V209.907H442.076Z" fill="#CC162C"/>
<path d="M442.076 0.000247032H462.076V-19.9998L442.076 -19.9998L442.076 0.000247032ZM442.076 209.907H422.076V229.907H442.076V209.907ZM375.924 0.000244141L375.924 -19.9998L355.924 -19.9998V0.000244141H375.924ZM375.924 209.907V229.907H395.924V209.907H375.924ZM0 209.907V189.907H-20V209.907H0ZM0 276.059H-20V296.059H0V276.059ZM375.924 276.059H395.924V256.059H375.924V276.059ZM375.924 485.966H355.924V505.966H375.924V485.966ZM442.076 485.966V505.966H462.076V485.966H442.076ZM442.076 276.059V256.059H422.076V276.059H442.076ZM818 276.059V296.059H838V276.059H818ZM818 209.907H838V189.907H818V209.907ZM422.076 0.000247032V209.907H462.076V0.000247032H422.076ZM375.924 20.0002L442.076 20.0002L442.076 -19.9998L375.924 -19.9998L375.924 20.0002ZM395.924 209.907V0.000244141H355.924V209.907H395.924ZM0 229.907H375.924V189.907H0V229.907ZM20 276.059V209.907H-20V276.059H20ZM375.924 256.059H0V296.059H375.924V256.059ZM395.924 485.966V276.059H355.924V485.966H395.924ZM442.076 465.966H375.924V505.966H442.076V465.966ZM422.076 276.059V485.966H462.076V276.059H422.076ZM818 256.059H442.076V296.059H818V256.059ZM798 209.907V276.059H838V209.907H798ZM442.076 229.907H818V189.907H442.076V229.907Z" fill="white" mask="url(#path-11-outside-1_206_49)"/>
</g>
</svg>
