<?xml version="1.0" standalone="no"?>
<!DOCTYPE svg PUBLIC "-//W3C//DTD SVG 20010904//EN"
 "http://www.w3.org/TR/2001/REC-SVG-20010904/DTD/svg10.dtd">
<svg version="1.0" xmlns="http://www.w3.org/2000/svg"
 width="512.000000pt" height="512.000000pt" viewBox="0 0 512.000000 512.000000"
 preserveAspectRatio="xMidYMid meet">
<metadata>
Created by potrace 1.14, written by Peter Selinger 2001-2017
</metadata>
<g transform="translate(0.000000,512.000000) scale(0.100000,-0.100000)"
fill="#000000" stroke="none">
<path d="M843 4625 c-167 -45 -303 -180 -347 -346 -22 -82 -23 -3348 -1 -3432
45 -171 177 -306 346 -351 84 -23 3348 -23 3434 -1 159 42 282 153 337 306
l23 64 2 1675 c2 1086 -1 1691 -7 1720 -38 172 -180 318 -351 364 -80 22
-3357 22 -3436 1z m1800 -650 c59 -38 72 -70 76 -190 2 -62 8 -113 14 -117 6
-3 31 -9 56 -13 73 -10 192 -52 286 -102 143 -75 288 -197 382 -323 87 -117
177 -315 198 -436 4 -21 8 -46 9 -54 2 -12 26 -16 119 -20 96 -4 120 -8 143
-26 43 -32 63 -65 70 -114 8 -60 -13 -109 -62 -146 -35 -27 -44 -29 -151 -33
-62 -2 -113 -6 -114 -10 -1 -12 -7 -37 -24 -106 -70 -281 -255 -531 -505 -682
-113 -69 -279 -131 -390 -146 -25 -4 -25 -5 -30 -119 -5 -107 -7 -117 -34
-152 -68 -90 -190 -86 -260 8 -18 23 -21 45 -25 142 -4 128 7 113 -91 133
-329 71 -625 314 -772 636 -33 72 -71 197 -81 265 -4 25 -6 25 -119 30 -106 5
-118 8 -152 33 -48 37 -64 72 -62 134 1 56 21 91 70 127 23 18 45 22 141 24
126 4 119 0 131 77 9 61 48 174 88 254 107 216 287 401 491 504 85 42 205 90
205 82 0 -3 8 -1 18 4 11 6 32 12 48 15 16 3 41 8 57 12 l27 6 0 99 c0 108 11
149 52 187 48 44 138 52 191 17z"/>
<path d="M2330 3325 c-208 -58 -404 -229 -494 -428 -33 -74 -62 -164 -55 -172
3 -2 46 -5 96 -6 78 -1 98 -5 126 -25 52 -35 71 -71 72 -135 0 -46 -5 -62 -29
-93 -39 -52 -78 -66 -181 -66 -54 0 -85 -4 -85 -11 0 -25 54 -169 83 -219 83
-148 196 -253 352 -330 52 -25 154 -60 176 -60 4 0 9 45 11 99 3 107 13 132
72 175 38 29 134 29 172 0 59 -43 69 -68 72 -175 3 -70 7 -99 16 -99 7 0 44
11 83 24 239 81 419 263 503 510 11 33 20 65 20 71 0 9 -29 14 -97 17 -109 4
-138 16 -178 76 -30 44 -30 127 1 168 43 59 68 69 175 72 l100 4 -6 31 c-38
195 -204 407 -402 515 -44 24 -177 72 -199 72 -8 0 -13 -30 -16 -99 -3 -90 -6
-102 -32 -136 -68 -89 -190 -85 -260 8 -16 22 -21 47 -24 127 -3 66 -8 100
-16 99 -6 0 -31 -7 -56 -14z"/>
</g>
</svg>
